<svg xmlns="http://www.w3.org/2000/svg" width="26" height="20.13" viewBox="0 0 26 20.13">
  <defs>
    <style>
      .cls-1 {
        fill: #fff;
        fill-rule: evenodd;
      }
    </style>
  </defs>
  <path id="Forma_1" data-name="Forma 1" class="cls-1" d="M1217.68,5809.42a2.227,2.227,0,0,0,1.52-.57l-7.37-7.25-0.51.36c-0.55.4-1,.71-1.34,0.93a7.524,7.524,0,0,1-1.37.69,4.291,4.291,0,0,1-1.6.35h-0.02a4.291,4.291,0,0,1-1.6-.35,7.524,7.524,0,0,1-1.37-.69c-0.35-.22-0.79-0.53-1.34-0.93-0.16-.11-0.33-0.24-0.51-0.37l-7.37,7.26a2.227,2.227,0,0,0,1.52.57h21.36Zm-22.21-12.39a7.767,7.767,0,0,1-1.47-1.25v11.04l6.49-6.39Q1198.54,5799.08,1195.47,5797.03Zm23.08,0c-1.98,1.31-3.66,2.45-5.04,3.4l6.49,6.39v-11.04A8.422,8.422,0,0,1,1218.55,5797.03Zm-0.87-7.74h-21.36a2.083,2.083,0,0,0-1.72.75,2.836,2.836,0,0,0-.6,1.85,3.374,3.374,0,0,0,.8,1.96,7.118,7.118,0,0,0,1.7,1.65c0.32,0.22,1.32.9,2.97,2.03,0.89,0.61,1.67,1.14,2.34,1.6,0.57,0.39,1.06.73,1.46,1.01,0.05,0.03.12,0.09,0.22,0.15,0.1,0.08.23,0.17,0.4,0.29q0.465,0.33.78,0.54c0.21,0.14.46,0.29,0.76,0.47a4.007,4.007,0,0,0,.83.38,2.21,2.21,0,0,0,.73.13h0.02a2.21,2.21,0,0,0,.73-0.13,4.007,4.007,0,0,0,.83-0.38c0.3-.18.55-0.33,0.76-0.47s0.47-.32.78-0.54c0.17-.12.3-0.21,0.4-0.29a1.988,1.988,0,0,0,.22-0.15c0.31-.21.81-0.55,1.47-1q1.8-1.245,5.32-3.64a6.889,6.889,0,0,0,1.77-1.76,3.788,3.788,0,0,0,.71-2.16,2.186,2.186,0,0,0-.69-1.62A2.284,2.284,0,0,0,1217.68,5789.29Z" transform="translate(-1194 -5789.28)"/>
</svg>
