<svg xmlns="http://www.w3.org/2000/svg" width="19.969" height="34" viewBox="0 0 19.969 34">
  <defs>
    <style>
      .cls-1 {
        fill: #fff;
        fill-rule: evenodd;
      }
    </style>
  </defs>
  <path class="cls-1" d="M909.415,5782.36h-14.84a2.521,2.521,0,0,0-2.567,2.47v29.05a2.523,2.523,0,0,0,2.567,2.48h14.84a2.524,2.524,0,0,0,2.567-2.48v-29.05A2.522,2.522,0,0,0,909.415,5782.36Zm-11.082,1.5h7.326a0.532,0.532,0,0,1,.336.6,0.518,0.518,0,0,1-.336.59h-7.326a0.516,0.516,0,0,1-.334-0.59A0.53,0.53,0,0,1,898.333,5783.86ZM902,5813.91a1.581,1.581,0,1,1,1.636-1.58A1.613,1.613,0,0,1,902,5813.91Zm8.063-5.41H893.932v-21.96h16.127v21.96Z" transform="translate(-892 -5782.34)"/>
</svg>
